<?xml version="1.0" standalone="no"?>
<!DOCTYPE svg PUBLIC "-//W3C//DTD SVG 20010904//EN"
 "http://www.w3.org/TR/2001/REC-SVG-20010904/DTD/svg10.dtd">
<svg version="1.0" xmlns="http://www.w3.org/2000/svg"
 width="30.000000pt" height="30.000000pt" viewBox="0 0 30.000000 30.000000"
 preserveAspectRatio="xMidYMid meet">

<g transform="translate(0.000000,30.000000) scale(0.100000,-0.100000)"
fill="#000000" stroke="none">
<path d="M105 261 c-45 -20 -70 -60 -70 -112 0 -65 40 -109 109 -116 42 -5 48
-3 81 30 27 27 35 43 35 71 l0 36 -55 0 c-48 0 -55 -3 -55 -19 0 -16 8 -20 43
-23 l42 -3 -27 -27 c-35 -36 -80 -37 -113 -3 -65 64 14 168 95 125 25 -13 47
12 26 30 -20 15 -85 22 -111 11z"/>
</g>
</svg>
