<?xml version="1.0" standalone="no"?>
<!DOCTYPE svg PUBLIC "-//W3C//DTD SVG 20010904//EN"
 "http://www.w3.org/TR/2001/REC-SVG-20010904/DTD/svg10.dtd">
<svg version="1.0" xmlns="http://www.w3.org/2000/svg"
 width="512.000000pt" height="512.000000pt" viewBox="0 0 512.000000 512.000000"
 preserveAspectRatio="xMidYMid meet">

<g transform="translate(0.000000,512.000000) scale(0.100000,-0.100000)"
fill="#000000" stroke="none">
<path d="M1865 5101 c-22 -10 -50 -30 -63 -43 -18 -20 -381 -856 -852 -1960
l-29 -68 58 0 59 0 416 973 c249 580 425 979 437 990 12 9 33 17 46 17 14 0
262 -101 550 -225 l525 -226 45 37 45 37 -23 12 c-13 7 -267 117 -564 244
-364 155 -552 231 -575 231 -19 0 -53 -9 -75 -19z"/>
<path d="M2140 4807 c-66 -74 -132 -102 -245 -103 l-90 -1 -353 -823 c-194
-453 -351 -824 -349 -826 4 -5 357 274 357 281 0 3 -10 34 -22 68 -26 77 -28
201 -4 267 59 160 206 263 397 279 99 7 194 -5 278 -37 30 -12 59 -18 66 -14
6 4 148 115 314 247 l302 239 -8 36 c-4 19 -8 70 -8 113 l0 78 -290 125 c-159
68 -292 124 -295 123 -3 -1 -25 -24 -50 -52z"/>
<path d="M3375 4690 c-17 -4 -38 -11 -47 -16 -9 -5 -480 -376 -1046 -824
l-1029 -815 83 -3 83 -3 968 767 c532 422 978 773 990 781 54 36 59 32 440
-449 197 -249 366 -463 375 -477 10 -14 18 -40 18 -57 0 -39 19 -22 -364 -324
l-298 -235 82 -3 82 -3 71 55 c285 220 494 394 514 431 28 50 29 113 4 163
-17 32 -697 899 -754 960 -41 45 -111 66 -172 52z"/>
<path d="M2346 3705 c-461 -365 -841 -667 -844 -670 -3 -3 177 -5 400 -5 l406
0 -31 78 c-42 108 -50 256 -17 351 88 261 362 356 634 219 91 -46 222 -181
268 -278 47 -100 62 -167 61 -277 l-1 -93 123 0 124 0 241 191 c185 147 240
195 235 208 -57 137 -42 281 37 368 l20 22 -201 255 -202 255 -47 -22 c-96
-43 -244 -24 -329 43 -14 11 -28 20 -32 20 -3 0 -383 -299 -845 -665z"/>
<path d="M1743 3738 c-11 -13 -29 -38 -39 -56 -10 -18 -23 -31 -29 -29 -45 17
-55 17 -75 -3 -28 -28 -22 -50 17 -75 27 -17 32 -26 33 -58 l0 -38 58 46 c31
26 66 62 78 81 12 19 32 46 45 60 l24 26 -40 34 c-22 18 -43 34 -46 34 -3 0
-15 -10 -26 -22z"/>
<path d="M2635 3531 l-59 -30 -22 25 c-27 28 -46 30 -68 8 -20 -20 -20 -43 0
-72 14 -21 13 -26 -12 -77 -34 -71 -30 -129 13 -183 53 -66 101 -71 255 -30
73 20 79 20 103 4 40 -26 34 -67 -17 -110 l-42 -36 88 0 87 0 24 53 c31 65 31
100 3 157 -46 89 -116 109 -256 70 -94 -26 -128 -26 -143 1 -8 16 -8 28 0 45
13 30 83 81 121 89 17 4 32 10 35 15 6 10 -35 100 -46 100 -3 0 -32 -13 -64
-29z"/>
<path d="M689 3340 c-99 -17 -183 -83 -228 -179 l-26 -56 -3 -1390 c-3 -1024
0 -1408 8 -1458 14 -80 54 -145 118 -194 89 -68 -42 -63 1962 -61 l1815 3 52
24 c68 30 134 102 162 174 20 55 21 73 21 452 l0 394 -452 3 -453 3 -67 32
c-175 83 -271 261 -239 441 28 158 138 281 290 326 47 14 119 16 488 16 l434
0 -3 413 -3 412 -27 51 c-34 65 -77 108 -142 142 l-51 27 -1815 5 c-998 3
-1823 9 -1832 13 -51 26 -65 117 -24 164 22 25 32 29 102 33 l78 5 43 99 c24
55 43 103 43 108 0 10 -187 9 -251 -2z m95 -675 c6 -16 -18 -45 -39 -45 -7 0
-15 -10 -17 -22 -2 -17 -10 -23 -28 -23 -20 0 -26 5 -28 30 -4 41 28 75 72 75
21 0 36 -6 40 -15z m272 0 c12 -31 -15 -45 -91 -45 -85 0 -105 6 -105 29 0 28
9 31 102 31 70 0 90 -3 94 -15z m311 -1 c11 -28 -25 -44 -98 -44 -83 0 -99 6
-99 36 0 24 1 24 95 24 80 0 97 -3 102 -16z m307 -1 c12 -29 -21 -43 -100 -43
-76 0 -109 15 -98 45 5 12 26 15 99 15 79 0 94 -3 99 -17z m310 2 c11 -30 -22
-45 -99 -45 -77 0 -110 15 -99 45 5 12 26 15 99 15 73 0 94 -3 99 -15z m306
-9 c0 -30 -16 -36 -99 -36 -73 0 -109 16 -98 44 5 13 22 16 102 16 94 0 95 0
95 -24z m308 0 c6 -28 -15 -36 -99 -36 -80 0 -108 13 -95 45 5 13 22 15 98 13
82 -3 93 -5 96 -22z m310 0 c6 -28 -15 -36 -99 -36 -80 0 -108 13 -95 45 5 13
22 15 98 13 82 -3 93 -5 96 -22z m308 9 c12 -31 -15 -45 -91 -45 -85 0 -105 6
-105 29 0 28 9 31 102 31 70 0 90 -3 94 -15z m311 -1 c11 -28 -25 -44 -98 -44
-83 0 -99 6 -99 36 0 24 1 24 95 24 80 0 97 -3 102 -16z m307 -1 c12 -29 -21
-43 -100 -43 -76 0 -109 15 -98 45 5 12 26 15 99 15 79 0 94 -3 99 -17z m310
2 c11 -30 -22 -45 -99 -45 -77 0 -110 15 -99 45 5 12 26 15 99 15 73 0 94 -3
99 -15z m167 -6 c28 -28 23 -83 -8 -87 -17 -3 -24 3 -29 21 -3 15 -15 28 -30
31 -23 6 -33 34 -17 49 14 14 64 6 84 -14z m-3592 -183 c8 -9 11 -45 9 -98 -3
-81 -4 -83 -28 -83 -24 0 -25 2 -28 83 -3 78 6 112 28 112 4 0 13 -6 19 -14z
m3595 8 c23 -9 24 -189 1 -198 -8 -3 -21 2 -30 10 -25 26 -17 194 10 194 2 0
10 -3 19 -6z m-3595 -318 c8 -9 11 -45 9 -98 -3 -81 -4 -83 -28 -83 -24 0 -25
2 -28 83 -3 78 6 112 28 112 4 0 13 -6 19 -14z m3606 -86 c0 -85 -2 -95 -19
-98 -28 -6 -36 15 -36 99 0 77 10 102 40 97 12 -3 15 -21 15 -98z m-3600 -310
c0 -95 0 -95 -25 -95 -24 0 -25 2 -28 84 -3 100 0 113 30 109 22 -3 23 -7 23
-98z m0 -310 c0 -95 0 -95 -25 -95 -24 0 -25 2 -28 84 -3 100 0 113 30 109 22
-3 23 -7 23 -98z m3 -301 c2 -68 -1 -89 -13 -99 -12 -10 -18 -10 -30 0 -11 9
-15 34 -15 95 0 45 3 85 7 89 4 4 16 6 28 4 18 -3 20 -11 23 -89z m3602 -314
c0 -79 -3 -94 -17 -99 -29 -12 -43 21 -43 100 0 76 15 109 45 98 12 -5 15 -26
15 -99z m-3602 4 c2 -68 -1 -89 -13 -99 -12 -10 -18 -10 -30 0 -11 9 -15 34
-15 95 0 45 3 85 7 89 4 4 16 6 28 4 18 -3 20 -11 23 -89z m-10 -221 c18 -18
16 -172 -3 -188 -12 -10 -18 -10 -30 0 -11 9 -15 34 -15 94 0 74 9 106 30 106
3 0 11 -5 18 -12z m3612 -93 c0 -73 -3 -94 -15 -99 -30 -11 -45 22 -45 99 0
77 15 110 45 99 12 -5 15 -26 15 -99z m-3602 -212 c2 -14 10 -23 21 -23 24 0
43 -23 35 -44 -9 -24 -63 -20 -91 6 -22 21 -31 67 -16 82 15 15 48 1 51 -21z
m3600 -10 c4 -43 -28 -75 -71 -71 -24 2 -33 8 -35 25 -3 17 3 24 21 29 16 3
28 15 31 31 5 18 12 24 29 21 17 -2 23 -11 25 -35z m-3278 -28 c7 -8 10 -22 6
-30 -5 -13 -22 -15 -98 -13 -82 3 -93 5 -96 22 -6 28 15 36 99 36 56 0 80 -4
89 -15z m309 1 c6 -7 8 -21 5 -30 -5 -14 -20 -16 -98 -14 -80 3 -91 5 -94 22
-6 28 15 36 99 36 53 0 80 -4 88 -14z m310 0 c6 -7 9 -21 5 -30 -9 -23 -189
-24 -198 -1 -3 8 2 21 10 30 21 20 166 21 183 1z m305 -1 c8 -9 13 -22 10 -30
-9 -23 -189 -22 -198 1 -12 32 13 44 95 44 56 0 82 -4 93 -15z m304 6 c8 -5
12 -17 10 -27 -3 -17 -14 -19 -94 -22 -78 -2 -93 0 -98 14 -12 32 13 44 93 44
42 0 82 -4 89 -9z m310 0 c8 -5 12 -17 10 -27 -3 -17 -14 -19 -96 -22 -76 -2
-93 0 -98 13 -13 32 15 45 95 45 42 0 82 -4 89 -9z m310 0 c8 -5 12 -17 10
-27 -3 -17 -13 -19 -98 -19 -85 0 -95 2 -98 19 -6 28 15 36 98 36 41 0 81 -4
88 -9z m312 -6 c7 -8 10 -22 6 -30 -5 -13 -22 -15 -98 -13 -82 3 -93 5 -96 22
-6 28 15 36 99 36 56 0 80 -4 89 -15z m310 0 c7 -8 10 -22 6 -30 -5 -13 -22
-15 -98 -13 -82 3 -93 5 -96 22 -6 28 15 36 99 36 56 0 80 -4 89 -15z m309 1
c6 -7 9 -21 5 -30 -9 -23 -189 -24 -198 -1 -3 8 2 21 10 30 21 20 166 21 183
1z m305 -1 c8 -9 13 -22 10 -30 -9 -23 -189 -22 -198 1 -12 32 13 44 95 44 56
0 82 -4 93 -15z"/>
<path d="M4122 3217 c-50 -40 -91 -75 -92 -79 0 -5 54 -8 119 -8 66 0 122 3
124 8 8 13 -19 98 -39 125 l-21 25 -91 -71z"/>
<path d="M3678 1756 c-129 -35 -221 -158 -221 -296 0 -120 62 -219 171 -272
l67 -33 472 -3 473 -3 25 25 25 25 0 259 c0 247 -1 261 -21 286 l-20 26 -462
-1 c-340 0 -474 -4 -509 -13z m167 -167 c42 -25 69 -75 69 -129 0 -87 -63
-150 -150 -150 -89 0 -154 63 -154 148 0 125 127 196 235 131z"/>
</g>
</svg>
